# File created by Blade
# Date/Time:  Fri Jan 16 17:25:32 2015
#---------------------------------------------------------
:version 1.10
:name HOM
:units
  mass 1.0
  length 1.000000
  angle deg
:documentation
     Acclaim Skeleton File
:root
   axis xyz
   order TX TY TZ RX RY RZ
   position 0.000000 0.000000 0.000000
   orientation 0 0 0
:bonedata
   begin
      id 1
      name Spine_dum
      direction 0.000000 1.000000 0.000000
      length 7.170412
      axis 0.0 0.0 0.0 xyz
   end
   begin
      id 2
      name LeftUpLeg_dum
      direction 1.000000 0.000000 0.000000
      length 4.318350
      axis 0.0 0.0 0.0 xyz
   end
   begin
      id 3
      name RightUpLeg_dum
      direction -1.000000 0.000000 0.000000
      length 4.318350
      axis 0.0 0.0 0.0 xyz
   end
   begin
      id 4
      name Spine
      direction 0.000000 1.000000 0.000000
      length 0.000000
      axis 0.0 0.0 0.0 xyz
      dof rx ry rz
   end
   begin
      id 5
      name Spine_dum1
      direction 0.000000 1.000000 0.000000
      length 14.276153
      axis 0.0 0.0 0.0 xyz
   end
   begin
      id 6
      name Spine_dum2
      direction 0.000000 1.000000 0.000000
      length 10.718243
      axis 0.0 0.0 0.0 xyz
   end
   begin
      id 7
      name Spine_dum3
      direction 0.000000 1.000000 0.000000
      length 10.718243
      axis 0.0 0.0 0.0 xyz
   end
   begin
      id 8
      name Head
      direction 0.000000 1.000000 0.000000
      length 4.527550
      axis 0.0 0.0 0.0 xyz
      dof rx ry rz
   end
   begin
      id 9
      name LeftShoulder
      direction 1.000000 0.000000 0.000000
      length 7.058872
      axis 0.0 0.0 -90.0 xyz
      dof rx ry rz
   end
   begin
      id 10
      name LeftArm
      direction 1.000000 0.000000 0.000000
      length 10.955525
      axis 0.0 0.0 -90.0 xyz
      dof rx ry rz
   end
   begin
      id 11
      name LeftForeArm
      direction 1.000000 0.000000 0.000000
      length 8.193716
      axis 0.0 0.0 -90.0 xyz
      dof ry rz rx
   end
   begin
      id 12
      name LeftHand
      direction 0.000000 0.000000 0.000000
      length 0.000000
      axis 0.0 0.0 -90.0 xyz
      dof rx ry rz
   end
   begin
      id 13
      name LeftHand_dum1
      direction 0.000000 0.000000 0.000000
      length 0.000000
      axis 0.0 0.0 -90.0 xyz
   end
   begin
      id 14
      name LeftHand_dum2
      direction 1.000000 0.000000 0.000000
      length 3.937000
      axis 0.0 0.0 -90.0 xyz
   end
   begin
      id 15
      name LeftHandThumb1
      direction 0.000000 0.000000 1.000000
      length 3.937000
      axis 0.0 0.0 -90.0 xyz
      dof rx rz ry
   end
   begin
      id 16
      name RightShoulder
      direction -1.000000 0.000000 0.000000
      length 7.058872
      axis 0.0 0.0 90.0 xyz
      dof rx ry rz
   end
   begin
      id 17
      name RightArm
      direction -1.000000 0.000000 0.000000
      length 10.955525
      axis 0.0 0.0 90.0 xyz
      dof rx ry rz
   end
   begin
      id 18
      name RightForeArm
      direction -1.000000 0.000000 0.000000
      length 8.193716
      axis 0.0 0.0 90.0 xyz
      dof ry rz rx
   end
   begin
      id 19
      name RightHand
      direction 0.000000 0.000000 0.000000
      length 0.000000
      axis 0.0 0.0 90.0 xyz
      dof rx ry rz
   end
   begin
      id 20
      name RightHand_dum1
      direction 0.000000 0.000000 0.000000
      length 0.000000
      axis 0.0 0.0 90.0 xyz
   end
   begin
      id 21
      name RightHand_dum2
      direction -1.000000 0.000000 0.000000
      length 3.937000
      axis 0.0 0.0 90.0 xyz
   end
   begin
      id 22
      name RightHandThumb1
      direction 0.000000 0.000000 1.000000
      length 3.937000
      axis 0.0 0.0 90.0 xyz
      dof rx rz ry
   end
   begin
      id 23
      name LeftUpLeg
      direction 0.000000 -1.000000 0.000000
      length 17.323638
      axis 0.0 0.0 0.0 xyz
      dof rx ry rz
   end
   begin
      id 24
      name LeftLeg
      direction 0.000000 -1.000000 0.000000
      length 16.270368
      axis 0.0 0.0 0.0 xyz
      dof rx ry rz
   end
   begin
      id 25
      name LeftFoot
      direction 0.000000 -0.258819 0.965926
      length 4.922846
      axis 15.0 0.0 0.0 xyz
      dof rx ry rz
   end
   begin
      id 26
      name LeftToeBase
      direction 0.000000 0.000000 1.000000
      length 2.952750
      axis 0.0 0.0 0.0 xyz
      dof rx ry rz
   end
   begin
      id 27
      name RightUpLeg
      direction 0.000000 -1.000000 0.000000
      length 17.323638
      axis 0.0 0.0 0.0 xyz
      dof rx ry rz
   end
   begin
      id 28
      name RightLeg
      direction 0.000000 -1.000000 0.000000
      length 16.270368
      axis 0.0 0.0 0.0 xyz
      dof rx ry rz
   end
   begin
      id 29
      name RightFoot
      direction 0.000000 -0.258819 0.965926
      length 4.922846
      axis 15.0 0.0 0.0 xyz
      dof rx ry rz
   end
   begin
      id 30
      name RightToeBase
      direction 0.000000 0.000000 1.000000
      length 2.952750
      axis 0.0 0.0 0.0 xyz
      dof rx ry rz
   end
:hierarchy
   begin
      root Spine_dum LeftUpLeg_dum RightUpLeg_dum
      Spine_dum Spine
      LeftUpLeg_dum LeftUpLeg
      RightUpLeg_dum RightUpLeg
      Spine Spine_dum1 Spine_dum2 Spine_dum3
      Spine_dum1 Head
      Spine_dum2 LeftShoulder
      Spine_dum3 RightShoulder
      LeftShoulder LeftArm
      LeftArm LeftForeArm
      LeftForeArm LeftHand
      LeftHand LeftHand_dum1 LeftHand_dum2
      LeftHand_dum1 LeftHandThumb1
      RightShoulder RightArm
      RightArm RightForeArm
      RightForeArm RightHand
      RightHand RightHand_dum1 RightHand_dum2
      RightHand_dum1 RightHandThumb1
      LeftUpLeg LeftLeg
      LeftLeg LeftFoot
      LeftFoot LeftToeBase
      RightUpLeg RightLeg
      RightLeg RightFoot
      RightFoot RightToeBase
   end

# File created by Blade
# Date/Time:  Fri Jan 16 17:25:22 2015
# Frame Rate: 120.000 fps
#------------------------------------------------------
:FULLY-SPECIFIED
:DEGREES
96
root -5.634258 35.335895 -10.926417 -1.237400 -7.068163 -5.705953
Spine 2.868829 -0.181587 9.226738
Head 0.609591 10.333683 -8.773285
LeftShoulder -25.430012 15.447922 1.319964
LeftArm 25.888649 -49.190562 -35.709324
LeftForeArm 18.294254 -0.000000 11.474775
LeftHand -7.520592 -0.000000 2.683075
LeftHandThumb1 -26.253704 0.000000 33.147579
RightShoulder -8.362470 12.629800 -19.905173
RightArm -5.796894 15.325254 20.504066
RightForeArm -26.910009 0.000000 24.173890
RightHand -8.800597 -0.000000 2.828736
RightHandThumb1 -24.326973 -0.000000 -32.862282
LeftUpLeg 9.436834 16.146898 7.119788
LeftLeg -7.847008 -0.000000 0.000000
LeftFoot -14.621986 27.696987 -8.679870
LeftToeBase 22.521069 -0.000000 -0.000000
RightUpLeg 5.157158 -5.804447 2.423288
RightLeg -2.063566 -0.000000 0.000000
RightFoot -4.583977 -22.551967 7.037887
RightToeBase 13.676719 -0.000000 -0.000000
97
root -5.627088 35.337856 -10.936567 -1.288007 -7.040612 -5.677745
Spine 3.004452 -0.142913 9.223133
Head 0.517653 10.391706 -8.879065
LeftShoulder -25.410737 15.670134 1.017355
LeftArm 25.581818 -48.431409 -35.957894
LeftForeArm 18.007773 -0.000000 12.575717
LeftHand -7.183031 -0.000000 3.233938
LeftHandThumb1 -26.253704 0.000000 33.147579
RightShoulder -8.265228 12.363352 -19.577073
RightArm -6.243070 15.421575 20.782150
RightForeArm -26.313150 -0.000000 25.197995
RightHand -8.873571 0.000000 1.713871
RightHandThumb1 -24.326973 -0.000000 -32.862282
LeftUpLeg 9.442229 16.144761 7.091375
LeftLeg -7.811352 -0.000000 0.000000
LeftFoot -14.607105 27.670184 -8.708031
LeftToeBase 22.481497 -0.000000 -0.000000
RightUpLeg 5.173255 -5.861131 2.382729
RightLeg -2.037860 -0.000000 0.000000
RightFoot -4.576436 -22.551313 7.009722
RightToeBase 13.712245 -0.000000 -0.000000
98
root -5.618904 35.340122 -10.947132 -1.328882 -6.988303 -5.658597
Spine 3.122074 -0.138938 9.224112
Head 0.450548 10.510158 -8.941668
LeftShoulder -25.374285 15.840813 0.698760
LeftArm 25.234873 -47.734078 -36.219753
LeftForeArm 17.863471 -0.000000 13.743837
LeftHand -6.758433 -0.000000 3.368471
LeftHandThumb1 -26.253704 0.000000 33.147579
RightShoulder -8.197005 12.074609 -19.263284
RightArm -6.660447 15.652097 21.206899
RightForeArm -25.853199 -0.000000 26.400204
RightHand -9.014151 -0.000000 0.567638
RightHandThumb1 -24.326973 -0.000000 -32.862282
LeftUpLeg 9.423284 16.088530 7.060114
LeftLeg -7.755711 -0.000000 0.000000
LeftFoot -14.643903 27.665441 -8.775554
LeftToeBase 22.482686 -0.000000 -0.000000
RightUpLeg 5.183317 -5.945885 2.348955
RightLeg -2.014086 -0.000000 0.000000
RightFoot -4.559252 -22.526183 6.996612
RightToeBase 13.731542 -0.000000 -0.000000
99
root -5.608843 35.342347 -10.960311 -1.363295 -7.020473 -5.648442
Spine 3.266731 -0.049267 9.246693
Head 0.358243 10.572856 -9.056658
LeftShoulder -25.344602 15.969477 0.381738
LeftArm 24.942772 -47.079544 -36.656805
LeftForeArm 17.977048 -0.000000 15.054143
LeftHand -6.510788 -0.000000 3.536391
LeftHandThumb1 -26.253704 0.000000 33.147579
RightShoulder -8.130760 11.800923 -18.950607
RightArm -7.096020 15.942574 21.689974
RightForeArm -25.466363 -0.000000 27.608338
RightHand -9.105693 -0.000000 -0.668126
RightHandThumb1 -24.326973 -0.000000 -32.862282
LeftUpLeg 9.432245 16.136253 7.043570
LeftLeg -7.734076 -0.000000 0.000000
LeftFoot -14.612454 27.648288 -8.773740
LeftToeBase 22.397042 -0.000000 -0.000000
RightUpLeg 5.158064 -5.949739 2.321571
RightLeg -1.952733 -0.000000 0.000000
RightFoot -4.525849 -22.492771 6.980034
RightToeBase 13.649730 -0.000000 -0.000000
100
root -5.600628 35.344168 -10.971287 -1.407595 -7.022414 -5.632991
Spine 3.408006 0.021779 9.261127
Head 0.281053 10.636994 -9.155206
LeftShoulder -25.284297 16.132156 0.002616
LeftArm 24.669837 -46.596189 -37.165827
LeftForeArm 18.096808 -0.000000 16.443161
LeftHand -6.023658 0.000000 3.568109
LeftHandThumb1 -26.253704 0.000000 33.147579
RightShoulder -8.059754 11.552182 -18.630478
RightArm -7.581333 16.233492 22.224499
RightForeArm -25.027255 -0.000000 28.859482
RightHand -9.033174 -0.000000 -1.997270
RightHandThumb1 -24.326973 -0.000000 -32.862282
LeftUpLeg 9.449352 16.186310 7.027242
LeftLeg -7.726524 -0.000000 0.000000
LeftFoot -14.592834 27.621296 -8.778242
LeftToeBase 22.411482 -0.000000 -0.000000
RightUpLeg 5.158538 -5.997656 2.290851
RightLeg -1.912952 -0.000000 0.000000
RightFoot -4.511911 -22.459585 6.945632
RightToeBase 13.704234 -0.000000 -0.000000
